<svg xmlns="http://www.w3.org/2000/svg" viewBox="0 0 480 420" width="100%" height="100%">
  <style>
    .title { font-family: -apple-system, BlinkMacSystemFont, "Segoe UI", Roboto, Helvetica, Arial, sans-serif; font-size: 16px; font-weight: 600; fill: #c9d1d9; }
    .label { font-family: -apple-system, BlinkMacSystemFont, "Segoe UI", Roboto, Helvetica, Arial, sans-serif; font-size: 12px; font-weight: 500; fill: #c9d1d9; }
    .val-text { font-family: monospace; font-size: 11px; fill: #8b949e; }
  </style>
  <rect width="480" height="420" fill="#161b22" stroke="#30363d" stroke-width="1" rx="10"/>
  <text x="240.0" y="32" text-anchor="middle" class="title">Language Bytes (GitHub API)</text>
  <polygon points="240.0,193.0 265.7,211.7 255.9,241.8 224.1,241.8 214.3,211.7" fill="none" stroke="#30363d" stroke-width="1" stroke-dasharray="3 3"/>
  <polygon points="240.0,166.0 291.4,203.3 271.7,263.7 208.3,263.7 188.6,203.3" fill="none" stroke="#30363d" stroke-width="1" stroke-dasharray="3 3"/>
  <polygon points="240.0,139.0 317.0,195.0 287.6,285.5 192.4,285.5 163.0,195.0" fill="none" stroke="#30363d" stroke-width="1" stroke-dasharray="3 3"/>
  <polygon points="240.0,112.0 342.7,186.6 303.5,307.4 176.5,307.4 137.3,186.6" fill="none" stroke="#30363d" stroke-width="1" stroke-dasharray="3 3"/>
  <polygon points="240.0,85.0 368.4,178.3 319.4,329.2 160.6,329.2 111.6,178.3" fill="none" stroke="#30363d" stroke-width="1" stroke-dasharray="none"/>
  <line x1="240.0" y1="220.0" x2="240.0" y2="85.0" stroke="#30363d" stroke-width="1"/>
  <text x="240.0" y="60.0" text-anchor="middle" dominant-baseline="central" class="label">TypeScript<tspan class="val-text"> (316KB)</tspan></text>
  <line x1="240.0" y1="220.0" x2="368.4" y2="178.3" stroke="#30363d" stroke-width="1"/>
  <text x="392.2" y="170.6" text-anchor="start" dominant-baseline="central" class="label">JavaScript<tspan class="val-text"> (161KB)</tspan></text>
  <line x1="240.0" y1="220.0" x2="319.4" y2="329.2" stroke="#30363d" stroke-width="1"/>
  <text x="334.0" y="349.4" text-anchor="start" dominant-baseline="central" class="label">Python<tspan class="val-text"> (44KB)</tspan></text>
  <line x1="240.0" y1="220.0" x2="160.6" y2="329.2" stroke="#30363d" stroke-width="1"/>
  <text x="146.0" y="349.4" text-anchor="end" dominant-baseline="central" class="label">PowerShell<tspan class="val-text"> (3KB)</tspan></text>
  <line x1="240.0" y1="220.0" x2="111.6" y2="178.3" stroke="#30363d" stroke-width="1"/>
  <text x="87.8" y="170.6" text-anchor="end" dominant-baseline="central" class="label">C++<tspan class="val-text"> (1KB)</tspan></text>
  <polygon points="240.0,85.0 337.6,188.3 275.7,269.1 228.9,235.3 227.2,215.8" fill="rgba(57, 211, 83, 0.25)" stroke="#39d353" stroke-width="2.5"/>
  <circle cx="240.0" cy="85.0" r="4" fill="#39d353" stroke="#161b22" stroke-width="1.5"/>
  <circle cx="337.6" cy="188.3" r="4" fill="#39d353" stroke="#161b22" stroke-width="1.5"/>
  <circle cx="275.7" cy="269.1" r="4" fill="#39d353" stroke="#161b22" stroke-width="1.5"/>
  <circle cx="228.9" cy="235.3" r="4" fill="#39d353" stroke="#161b22" stroke-width="1.5"/>
  <circle cx="227.2" cy="215.8" r="4" fill="#39d353" stroke="#161b22" stroke-width="1.5"/>
</svg>